<?xml version="1.0" encoding="UTF-8"?>
<!DOCTYPE svg PUBLIC "-//W3C//DTD SVG 1.1//EN" "http://www.w3.org/Graphics/SVG/1.1/DTD/svg11.dtd">
<svg xmlns="http://www.w3.org/2000/svg" xml:space="preserve" width="4in" height="4in" style="shape-rendering:geometricPrecision; text-rendering:geometricPrecision; image-rendering:optimizeQuality; fill-rule:evenodd; clip-rule:evenodd" viewBox="0 0 4 4" xmlns:xlink="http://www.w3.org/1999/xlink">
	<path fill="black" class="fil0" d="M3.93701e-006 3.20199l0.000874016 -1.20175 0.393394 -0.00107087c0,0.222949 0.180709,0.403685 0.403626,0.404244 0.440669,0.000562992 0.797894,0.357839 0.799358,0.798575 0.00145669,0.222949 0.182165,0.403685 0.405083,0.403685 0.222917,0 0.403626,-0.180736 0.404244,-0.403685 0.00061811,-0.888933 -0.719882,-1.60954 -1.60869,-1.60802 -0.222917,0.00151575 -0.403626,0.182248 -0.403626,0.405201l-0.393394 0.00107087 0.000874016 -1.20389 0.39252 0c0,0.222949 0.180709,0.403685 0.403626,0.403346 1.10587,-0.000338583 2.00233,0.89626 2.00379,2.00229 0.00146457,0.222949 0.182173,0.403685 0.405091,0.403685 0.222917,0 0.403626,-0.180736 0.403559,-0.403685 -5.90551e-005,-1.55348 -1.25919,-2.8128 -2.81244,-2.81106 -0.222917,0.00173228 -0.403626,0.182469 -0.403626,0.405421l-0.39252 0c0,-0.439772 0.356441,-0.796268 0.796146,-0.796343 1.7682,-8.66142e-005 3.20159,1.43352 3.20209,3.20198 0.000507874,0.438425 -0.35485,0.793839 -0.793213,0.793839l-2.40888 0.00417323c-0.440669,0 -0.797894,-0.357276 -0.797894,-0.798012l0.394268 0c0,0.222949 0.180709,0.403685 0.403626,0.403685 0.222917,0 0.403626,-0.180736 0.403626,-0.403685 0,-0.222953 -0.180709,-0.403685 -0.403626,-0.403685 -0.222917,0 -0.403626,0.180732 -0.403626,0.403685l-0.394268 0z"/>
</svg>

